#!OML:ASF X:\für Bonn\!DataBase\2005_08_12_Daniel\c3d\Daniel.ASF
:FULLY-SPECIFIED
:DEGREES
114
root -3.22996 7.77731 -1.19417 -342.91 -87.6747 314.429
lowerback 58.3096 -4.25566 4.59952
upperback 4.35295 -4.22024 -1.63365
thorax -17.0831 -2.61522 -1.53326
lowerneck 8.02361 2.94438 -2.47599
upperneck -5.76867 3.46816 -2.33223
head -3.27672 1.86734 -0.512824
rclavicle 3.27995e-015 -1.59028e-015
rhumerus 65.5795 -0.352166 -109.725
rradius 4.37919
rwrist 76.103
rhand -24.0302 8.96024
rfingers 7.12502
rthumb 2.44818 -21.0055
lclavicle 3.27995e-015 -1.59028e-015
lhumerus 61.0354 4.20613 97.7016
lradius 10.1409
lwrist -70.8326
lhand -19.7545 -1.00881
lfingers 7.12502
lthumb 6.5768 28.8691
rfemur 27.8722 -61.8683 -119.765
rtibia 148.812
rfoot 320.06 57.3196
rtoes -16.351
lfemur -581.678 114.538 -133.637
ltibia 146.655
lfoot -23.4395 -58.3537
ltoes 1.17707
115
root -3.20593 7.9518 -1.19615 -341.78 -87.6896 313.92
lowerback 58.0766 -4.27052 4.64201
upperback 4.20561 -4.18529 -1.63349
thorax -17.2496 -2.59075 -1.5729
lowerneck 7.89451 2.97102 -2.54007
upperneck -5.73491 3.50368 -2.31179
head -3.24181 1.88442 -0.49389
rclavicle 2.98177e-015 -1.53064e-014
rhumerus 65.5704 -0.300562 -109.538
rradius 4.39196
rwrist 75.8042
rhand -24.0892 8.90899
rfingers 7.12502
rthumb 2.39122 -21.0574
lclavicle 2.98177e-015 -1.53064e-014
lhumerus 61.1498 4.24006 97.889
lradius 10.1146
lwrist -71.2917
lhand -19.5389 -0.981987
lfingers 7.12502
lthumb 6.78495 28.8893
rfemur 24.902 -64.0961 -113.803
rtibia 147.554
rfoot 323.241 55.694
rtoes -16.5222
lfemur -586.171 116.484 -140.562
ltibia 145.426
lfoot -22.2304 -56.023
ltoes 0.881742
116
root -3.1845 8.1266 -1.19805 -340.265 -87.6887 313.015
lowerback 57.8146 -4.29319 4.69143
upperback 4.06489 -4.15569 -1.62601
thorax -17.405 -2.56926 -1.60535
lowerneck 7.8313 3.0022 -2.56322
upperneck -5.74712 3.54188 -2.34714
head -3.23367 1.90503 -0.502353
rclavicle 1.21259e-014 -1.03368e-014
rhumerus 65.5438 -0.216776 -109.364
rradius 4.45956
rwrist 75.5271
rhand -24.0788 8.88226
rfingers 7.12502
rthumb 2.40122 -21.084
lclavicle 1.21259e-014 -1.03368e-014
lhumerus 61.2708 4.30771 98.073
lradius 10.0624
lwrist -71.839
lhand -19.4433 -0.931268
lfingers 7.12502
lthumb 6.87724 28.937
rfemur 20.4463 -66.1596 -106.432
rtibia 146.262
rfoot 326.406 54.0451
rtoes -16.5502
lfemur -589.772 118.659 -146.463
ltibia 144.178
lfoot -21.3434 -53.7427
ltoes 0.604856
117
root -3.16501 8.29966 -1.19949 -338.749 -87.706 312.1
lowerback 57.5047 -4.29682 4.72878
upperback 3.94633 -4.11487 -1.61565
thorax -17.5277 -2.54347 -1.6369
lowerneck 7.74503 3.03193 -2.62936
upperneck -5.73267 3.57781 -2.34589
head -3.2135 1.92353 -0.490441
rclavicle -5.66536e-015 -1.13307e-014
rhumerus 65.5102 -0.122005 -109.184
rradius 4.59053
rwrist 75.1508
rhand -23.9767 8.91182
rfingers 7.12502
rthumb 2.49985 -21.0533
lclavicle -5.66536e-015 -1.13307e-014
lhumerus 61.4571 4.26064 98.1208
lradius 9.9193
lwrist -72.2136
lhand -19.5089 -0.777571
lfingers 7.12502
lthumb 6.81391 29.0928
rfemur 14.2431 -67.9258 -97.4777
rtibia 144.959
rfoot 329.548 52.4031
rtoes -16.5673
lfemur -592.475 120.89 -151.343
ltibia 142.922
lfoot -20.5384 -51.587
ltoes 0.483104
118
root -3.14751 8.47252 -1.20119 -337.066 -87.7196 310.998
lowerback 57.1713 -4.30675 4.79383
upperback 3.83798 -4.07139 -1.62799
thorax -17.6374 -2.51848 -1.70948
lowerneck 7.67396 3.05495 -2.63891
upperneck -5.71542 3.61131 -2.33953
head -3.19418 1.93952 -0.48678
rclavicle 2.24627e-014 -1.19271e-015
rhumerus 65.507 -0.0718089 -109.027
rradius 4.69453
rwrist 74.7733
rhand -23.8593 8.93748
rfingers 7.12502
rthumb 2.61325 -21.0263
lclavicle 2.24627e-014 -1.19271e-015
lhumerus 61.6323 4.17642 98.1465
lradius 9.75982
lwrist -72.5918
lhand -19.7465 -0.582574
lfingers 7.12502
lthumb 6.5845 29.2951
rfemur 6.39552 -69.1796 -86.9706
rtibia 143.619
rfoot 332.627 50.7045
rtoes -16.4535
lfemur -594.573 123.205 -155.483
ltibia 141.661
lfoot -19.8823 -49.5194
ltoes 0.207755
119
root -3.13357 8.6447 -1.20316 -335.696 -87.754 310.193
lowerback 56.7846 -4.29201 4.81049
upperback 3.76098 -4.03168 -1.62525
thorax -17.7006 -2.49356 -1.74327
lowerneck 7.57038 3.08136 -2.65711
upperneck -5.71312 3.64613 -2.37065
head -3.17326 1.95772 -0.493425
rclavicle 1.53064e-014 -2.38542e-015
rhumerus 65.5649 0.051277 -108.877
rradius 4.71843
rwrist 74.4592
rhand -23.7544 8.89385
rfingers 7.12502
rthumb 2.71458 -21.0686
lclavicle 1.53064e-014 -2.38542e-015
lhumerus 61.8653 4.12269 98.1883
lradius 9.56064
lwrist -72.9732
lhand -20.1217 -0.320527
lfingers 7.12502
lthumb 6.22234 29.5681
rfemur -2.62856 -69.7408 -75.4914
rtibia 142.286
rfoot 335.556 49.0333
rtoes -16.262
lfemur -596.047 125.458 -158.928
ltibia 140.381
lfoot -19.3979 -47.5989
ltoes 0.0469653
120
root -3.12202 8.81745 -1.20487 -334.467 -87.7738 309.503
lowerback 56.376 -4.28332 4.85184
upperback 3.70087 -3.98832 -1.62941
thorax -17.7398 -2.4691 -1.79908
lowerneck 7.44482 3.1012 -2.64263
upperneck -5.6847 3.67801 -2.39438
head -3.13853 1.97302 -0.502262
rclavicle -4.47266e-015 1.51076e-014
rhumerus 65.6375 0.159697 -108.728
rradius 4.74037
rwrist 74.1999
rhand -23.6299 8.82106
rfingers 7.12502
rthumb 2.83479 -21.1398
lclavicle -4.47266e-015 1.51076e-014
lhumerus 62.0875 4.03953 98.2333
lradius 9.39581
lwrist -73.2335
lhand -20.5133 -0.0586577
lfingers 7.12502
lthumb 5.84428 29.8407
rfemur -12.1143 -69.4849 -63.6384
rtibia 140.918
rfoot 338.258 47.2751
rtoes -16.0306
lfemur -597.149 127.772 -161.931
ltibia 139.082
lfoot -18.9862 -45.7286
ltoes -0.0564371
121
root -3.1128 8.99158 -1.20646 -333.819 -87.8234 309.361
lowerback 55.9837 -4.26119 4.84472
upperback 3.62109 -3.95678 -1.63298
thorax -17.8034 -2.44655 -1.82567
lowerneck 7.4051 3.13175 -2.66577
upperneck -5.66969 3.71607 -2.4212
head -3.12573 1.9929 -0.507842
rclavicle -1.86858e-014 3.97569e-016
rhumerus 65.6445 0.269895 -108.576
rradius 4.76358
rwrist 74.0325
rhand -23.5612 8.74275
rfingers 7.12502
rthumb 2.90111 -21.2173
lclavicle -1.86858e-014 3.97569e-016
lhumerus 62.2503 4.00128 98.2746
lradius 9.25117
lwrist -73.4393
lhand -20.8593 0.193946
lfingers 7.12502
lthumb 5.51024 30.1023
rfemur -21.0316 -68.4408 -52.496
rtibia 139.53
rfoot 340.737 45.489
rtoes -15.8131
lfemur -597.853 130.054 -164.545
ltibia 137.756
lfoot -18.7049 -43.9116
ltoes -0.253347
122
root -3.10459 9.16658 -1.20833 -333.045 -87.8666 309.086
lowerback 55.5438 -4.24009 4.85403
upperback 3.58134 -3.92429 -1.64319
thorax -17.8113 -2.42567 -1.86986
lowerneck 7.30343 3.15205 -2.68332
upperneck -5.64238 3.74475 -2.43653
head -3.09692 2.00706 -0.508686
rclavicle 5.1684e-015 1.43125e-014
rhumerus 65.6776 0.37293 -108.427
rradius 4.78692
rwrist 73.9237
rhand -23.5293 8.60345
rfingers 7.12502
rthumb 2.93197 -21.3561
lclavicle 5.1684e-015 1.43125e-014
lhumerus 62.4316 3.95719 98.3024
lradius 9.16348
lwrist -73.5769
lhand -21.1186 0.320226
lfingers 7.12502
lthumb 5.2598 30.2349
rfemur -28.6208 -66.751 -42.757
rtibia 138.124
rfoot 342.897 43.6558
rtoes -15.5348
lfemur -598.334 132.331 -166.861
ltibia 136.39
lfoot -18.4139 -42.1833
ltoes -0.357327
